<?xml version="1.0" standalone="no"?>
<!DOCTYPE svg PUBLIC "-//W3C//DTD SVG 20010904//EN"
 "http://www.w3.org/TR/2001/REC-SVG-20010904/DTD/svg10.dtd">
<svg version="1.0" xmlns="http://www.w3.org/2000/svg"
 width="2560" height="933" viewBox="0 0 2560.000000 933.000000"
 preserveAspectRatio="xMidYMid meet">

<g transform="translate(0.000000,933.000000) scale(0.100000,-0.100000)"
fill="#FFF" stroke="none">
<path d="M4875 8844 c-109 -14 -265 -46 -343 -69 -32 -10 -60 -27 -76 -46 -25
-29 -26 -36 -26 -152 l0 -122 -123 -63 c-159 -82 -286 -173 -420 -302 -357
-344 -534 -713 -582 -1221 l-6 -67 -55 -4 c-43 -4 -61 -11 -82 -32 l-27 -26
-3 -275 c-3 -301 1 -330 54 -354 16 -7 101 -11 243 -11 l218 0 -5 -25 c-3 -18
-18 -33 -51 -50 -140 -73 -256 -219 -305 -384 -25 -86 -23 -347 5 -437 53
-174 161 -304 320 -385 56 -28 56 -28 69 -91 52 -267 208 -554 410 -758 137
-139 255 -225 415 -305 214 -107 348 -146 568 -166 353 -32 702 60 1014 268
129 85 332 291 417 421 112 170 189 350 231 535 17 72 17 72 66 95 155 74 277
222 326 395 8 29 17 111 20 182 6 165 -9 246 -72 372 -54 107 -131 187 -237
248 -53 31 -68 44 -68 62 l0 23 170 0 c263 0 250 -19 250 354 l0 276 -28 31
c-24 27 -37 33 -83 37 l-55 4 -12 117 c-45 434 -211 793 -512 1105 -173 179
-340 303 -522 389 l-88 41 0 120 c0 183 5 179 -230 232 -233 53 -559 69 -785
38z m658 -233 c66 -11 123 -24 128 -27 5 -3 9 -374 9 -895 l0 -889 -510 0
-510 0 0 890 0 889 38 10 c37 10 195 37 262 45 19 2 132 3 250 1 166 -2 242
-7 333 -24z m-1103 -1106 l0 -705 -455 0 c-359 0 -455 3 -455 13 0 6 7 68 15
137 59 504 363 957 823 1225 31 18 60 34 65 34 4 1 7 -316 7 -704z m1560 655
c389 -234 656 -593 764 -1028 25 -98 46 -238 46 -299 l0 -33 -455 0 -455 0 0
705 c0 388 4 705 8 705 5 0 46 -22 92 -50z m980 -1710 l0 -130 -1810 0 -1810
0 0 130 0 130 1810 0 1810 0 0 -130z m-419 -429 c5 -104 21 -126 120 -165 98
-39 194 -132 230 -221 21 -54 24 -75 24 -210 l0 -150 -34 -70 c-19 -38 -56
-91 -83 -118 l-49 -49 -23 21 c-68 64 -186 13 -186 -81 0 -141 -68 -380 -156
-546 -58 -111 -74 -134 -170 -252 -149 -182 -404 -348 -639 -415 -312 -90
-661 -62 -956 78 -262 125 -493 354 -627 622 -75 152 -110 279 -138 508 -12
99 -105 149 -172 92 -30 -25 -32 -26 -54 -9 -45 34 -103 113 -124 170 -28 74
-38 207 -25 302 23 155 100 256 249 324 114 52 121 62 122 166 l0 82 1344 0
1344 0 3 -79z"/>
<path d="M4210 6006 c-102 -32 -204 -128 -240 -223 -89 -237 56 -488 301 -523
83 -12 375 -12 458 0 125 18 236 99 289 211 l27 58 161 0 161 1 32 -64 c52
-106 156 -182 281 -206 68 -13 402 -13 470 0 126 24 231 104 287 217 25 53 28
68 28 163 0 97 -2 110 -30 164 -40 79 -105 142 -185 180 l-65 31 -270 0 -270
0 -65 -31 c-81 -38 -148 -103 -184 -177 l-28 -57 -162 0 -161 1 -23 48 c-46
99 -133 174 -238 206 -61 19 -518 20 -574 1z m1909 -207 c85 -19 133 -78 133
-164 0 -54 -22 -96 -69 -132 l-36 -28 -206 -3 c-216 -4 -257 2 -305 39 -82 65
-76 206 12 265 22 16 54 20 172 25 240 9 253 9 299 -2z m-1359 -21 c52 -36 73
-71 77 -130 5 -67 -25 -123 -82 -155 -38 -22 -51 -23 -253 -23 -248 0 -271 6
-318 85 -46 80 -24 168 56 223 32 21 41 22 260 22 219 0 228 -1 260 -22z"/>
<path d="M9468 5165 c-149 -38 -277 -141 -341 -275 -47 -99 -61 -177 -55 -303
9 -160 60 -272 171 -374 103 -93 202 -127 372 -126 103 0 131 4 200 27 45 15
86 30 92 34 7 5 13 51 15 122 l3 115 -47 3 c-53 3 -50 7 -69 -103 -6 -38 -16
-75 -21 -82 -17 -21 -155 -46 -217 -39 -196 23 -313 175 -327 426 -14 225 78
413 233 482 66 29 165 35 237 14 64 -19 66 -22 85 -133 l13 -73 49 0 49 0 0
109 c0 103 -2 111 -22 126 -75 52 -304 80 -420 50z"/>
<path d="M10721 5164 c-81 -21 -152 -67 -219 -138 -101 -108 -146 -233 -145
-401 1 -287 160 -495 411 -536 245 -40 475 129 538 397 23 99 15 266 -18 355
-33 90 -70 150 -126 206 -114 113 -286 159 -441 117z m234 -92 c145 -74 224
-323 181 -572 -30 -176 -108 -292 -220 -325 -63 -19 -90 -19 -155 1 -144 42
-231 215 -231 458 0 68 6 135 15 171 38 146 115 251 205 280 59 19 155 13 205
-13z"/>
<path d="M13410 5167 c-104 -30 -177 -86 -211 -161 -29 -64 -26 -178 7 -244
45 -90 118 -142 315 -222 91 -37 153 -87 169 -136 27 -82 -15 -175 -97 -215
-40 -19 -64 -23 -138 -23 -61 0 -102 6 -126 17 -35 15 -36 19 -49 94 -17 105
-22 113 -70 113 -21 0 -41 -3 -44 -8 -2 -4 -6 -54 -7 -112 l-4 -105 56 -28
c32 -16 96 -35 145 -44 162 -28 313 8 401 96 106 107 98 305 -18 405 -51 44
-100 70 -224 120 -49 20 -105 47 -125 61 -50 34 -80 91 -80 149 0 109 84 177
215 175 80 -1 118 -19 126 -60 4 -19 12 -60 19 -92 l12 -58 46 3 47 3 6 100
c6 94 5 101 -15 117 -66 55 -257 84 -356 55z"/>
<path d="M21805 5170 c-197 -42 -349 -189 -400 -387 -18 -67 -20 -220 -4 -295
6 -29 26 -86 45 -126 97 -202 318 -308 573 -272 84 11 186 43 208 64 7 7 13
53 14 121 l3 110 -49 0 -49 0 -16 -89 c-17 -100 -21 -105 -125 -126 -207 -43
-377 79 -431 307 -22 94 -14 274 16 360 71 203 268 309 455 245 54 -19 49 -9
75 -144 l11 -58 51 0 51 0 -6 111 c-3 62 -10 116 -15 121 -5 5 -42 21 -83 35
-81 28 -247 40 -324 23z"/>
<path d="M11722 5128 c3 -33 4 -33 63 -38 l60 -5 0 -450 0 -449 -65 -11 c-63
-10 -65 -11 -65 -40 l0 -30 193 -3 193 -2 -3 32 c-3 35 -12 39 -120 53 l-48 6
0 390 c0 214 2 389 4 389 2 0 118 -161 257 -357 394 -559 367 -523 395 -523
l24 0 2 492 3 492 65 11 c64 10 65 11 68 43 l3 32 -191 0 -191 0 3 -32 3 -33
78 -10 77 -10 1 -339 c0 -186 -1 -340 -3 -342 -2 -1 -125 170 -273 382 l-269
384 -134 0 -133 0 3 -32z"/>
<path d="M14216 5128 c-3 -18 -6 -80 -7 -138 l-2 -105 46 -3 45 -3 11 68 c7
37 14 83 17 101 l6 32 119 0 119 0 0 -449 0 -448 -80 -7 -80 -7 0 -35 0 -34
238 2 237 3 0 30 c0 27 -4 30 -40 37 -22 4 -56 7 -76 7 l-36 1 -6 225 c-3 124
-3 326 0 450 l6 225 117 0 117 0 18 -100 17 -100 44 0 44 0 0 79 c0 43 -3 106
-6 140 l-7 61 -427 0 -428 0 -6 -32z"/>
<path d="M15490 5126 l0 -33 70 -7 70 -7 -2 -447 -3 -447 -67 -9 -68 -8 0 -34
0 -34 220 0 220 0 0 34 0 35 -69 7 -68 6 -8 194 c-4 106 -4 198 0 205 12 19
167 6 206 -17 53 -32 69 -64 113 -240 46 -182 56 -206 95 -224 36 -17 128 -23
176 -13 37 8 40 11 40 43 0 35 0 35 -52 40 -29 3 -57 10 -62 15 -5 6 -25 68
-45 139 -21 71 -48 150 -61 177 -24 46 -84 99 -112 99 -27 0 -11 17 25 28 21
6 59 25 84 42 159 105 154 344 -10 433 -92 50 -143 57 -429 57 l-263 0 0 -34z
m567 -67 c63 -32 93 -88 93 -171 0 -107 -54 -187 -144 -213 -57 -17 -212 -20
-221 -4 -4 5 -4 103 0 216 l8 205 108 -4 c89 -4 116 -9 156 -29z"/>
<path d="M16740 5141 c0 -35 12 -51 39 -51 14 0 43 -3 63 -6 l37 -6 3 -352 c4
-386 7 -406 69 -499 35 -54 91 -95 164 -123 68 -25 219 -26 292 -1 66 23 146
94 179 160 47 91 54 156 54 499 l0 317 58 6 c79 9 82 10 82 45 l0 30 -191 0
-190 0 3 -32 3 -33 78 -9 77 -9 0 -286 c0 -157 -5 -315 -10 -351 -14 -89 -55
-167 -107 -204 -37 -26 -54 -30 -128 -34 -104 -6 -158 12 -208 67 -67 75 -72
105 -72 476 l0 330 75 10 c75 10 75 10 78 43 l3 32 -225 0 c-216 0 -226 -1
-226 -19z"/>
<path d="M18867 5053 c-12 -184 -14 -173 37 -173 50 0 46 -6 67 123 l12 77
117 0 117 0 6 -206 c4 -113 4 -315 0 -449 l-6 -242 -76 -9 -76 -9 -3 -32 -3
-33 240 0 241 0 0 29 c0 17 -4 32 -9 35 -5 3 -40 9 -78 12 l-70 7 -6 223 c-3
123 -3 325 1 449 l5 225 117 0 c135 0 119 14 141 -122 l13 -78 46 0 46 0 -3
118 c-2 64 -6 127 -9 140 l-4 22 -429 0 -428 0 -6 -107z"/>
<path d="M20142 5128 c3 -33 4 -33 68 -41 35 -4 67 -10 70 -13 7 -8 12 -821 5
-860 -5 -31 -7 -32 -75 -38 l-70 -7 0 -35 0 -34 405 0 405 0 5 23 c2 12 6 75
7 140 l3 117 -46 0 -46 0 -12 -77 c-22 -139 7 -123 -222 -123 l-199 0 0 210 0
210 114 0 114 0 7 -52 c12 -83 20 -98 55 -98 l30 0 0 190 0 190 -34 0 c-37 0
-40 -4 -52 -97 l-7 -53 -113 0 -114 0 0 200 0 200 185 0 c102 0 185 -1 186 -2
0 -2 8 -46 17 -98 l18 -95 43 0 43 0 -1 123 c-1 68 -5 130 -8 138 -4 12 -64
14 -395 14 l-389 0 3 -32z"/>
<path d="M22670 5125 c0 -33 2 -35 33 -35 17 0 48 -3 68 -6 l37 -6 7 -224 c4
-123 4 -325 0 -448 l-7 -224 -69 -6 -69 -7 0 -35 0 -34 220 0 220 0 0 34 0 35
-70 7 -70 7 0 208 0 209 250 0 250 0 -2 -207 -3 -208 -67 -9 -68 -8 0 -34 0
-34 221 0 220 0 -3 33 c-3 32 -4 32 -70 41 l-67 9 -6 41 c-7 50 -2 842 5 850
3 3 35 9 70 13 64 8 65 8 68 41 l3 32 -220 0 -221 0 0 -34 0 -33 70 -7 70 -7
0 -200 0 -199 -250 0 -250 0 0 199 0 198 38 7 c20 3 52 6 70 6 30 0 32 2 32
35 l0 35 -220 0 -220 0 0 -35z"/>
<path d="M18170 4490 l0 -50 180 0 180 0 0 50 0 50 -180 0 -180 0 0 -50z"/>
<path d="M4880 3319 c-51 -21 -66 -49 -135 -252 -65 -191 -68 -205 -56 -235 8
-19 59 -73 122 -129 60 -52 109 -101 109 -108 0 -7 -43 -154 -95 -328 -52
-174 -95 -333 -95 -354 0 -21 8 -50 17 -63 51 -74 394 -467 417 -478 69 -31
96 -10 306 238 199 234 220 263 220 299 0 13 -45 172 -100 353 -55 182 -100
333 -100 337 0 4 49 50 109 101 113 97 131 120 131 170 0 33 -115 373 -139
409 -30 47 -58 51 -383 50 -176 0 -313 -4 -328 -10z m582 -313 l36 -104 -113
-102 c-77 -69 -117 -112 -125 -134 -11 -34 -4 -61 161 -599 38 -124 38 -130
22 -151 -10 -12 -67 -79 -126 -149 l-109 -126 -123 142 c-69 78 -124 149 -125
157 0 8 45 163 100 344 55 180 100 340 100 355 0 44 -17 63 -198 224 l-43 38
32 97 c17 53 34 100 36 105 2 4 102 7 221 7 l217 0 37 -104z"/>
<path d="M3855 3261 c-334 -85 -593 -191 -799 -328 -107 -71 -272 -223 -345
-318 -267 -347 -395 -809 -446 -1612 -7 -114 4 -152 53 -177 49 -25 518 -108
907 -160 338 -45 695 -79 1135 -108 264 -18 1435 -18 1695 0 465 31 768 60
1130 108 370 49 870 136 915 159 24 12 41 37 54 77 10 32 -28 474 -59 680
-147 980 -574 1444 -1547 1683 -151 37 -182 41 -222 25 -42 -16 -58 -53 -77
-185 -56 -387 -239 -805 -576 -1320 -124 -188 -164 -244 -336 -467 l-129 -167
-107 137 c-196 251 -356 483 -509 738 -238 396 -393 796 -433 1118 -15 118
-46 157 -122 155 -18 0 -99 -17 -182 -38z m114 -308 c115 -539 457 -1167 1023
-1880 142 -178 167 -203 209 -203 53 0 80 24 212 189 573 722 922 1360 1028
1876 12 61 25 113 28 117 7 9 190 -38 296 -75 553 -193 844 -470 1003 -952 81
-245 147 -642 155 -925 l2 -94 -35 -7 c-799 -147 -1537 -222 -2339 -237 -776
-15 -1489 19 -2157 103 -356 45 -894 131 -908 146 -3 2 2 81 10 174 86 1013
353 1474 1004 1734 135 54 372 129 441 140 3 1 16 -47 28 -106z"/>
</g>
</svg>
