<?xml version="1.0" encoding="UTF-8"?>
<!-- Generator: visioncortex VTracer 0.6.1 -->
<svg version="1.1" xmlns="http://www.w3.org/2000/svg" width="1280" height="466">
<path d="M0 0 C1.8531231 2.77063031 1.48411092 5.20159892 1.38671875 8.48046875 C1.34611328 10.24970703 1.34611328 10.24970703 1.3046875 12.0546875 C1.26988281 12.95832031 1.23507812 13.86195312 1.19921875 14.79296875 C2.08480469 15.06238281 2.97039062 15.33179687 3.8828125 15.609375 C24.32829617 22.90617306 41.3989166 43.60958325 50.55859375 62.61328125 C55.02428115 72.67421228 57.12684007 82.89045222 58.19921875 93.79296875 C59.04603652 96.04849543 59.04603652 96.04849543 61.63671875 96.73046875 C64.19921875 97.79296875 64.19921875 97.79296875 66.19921875 100.79296875 C66.45800781 103.85571289 66.45800781 103.85571289 66.46484375 107.578125 C66.4667572 108.23501816 66.46867065 108.89191132 66.47064209 109.56871033 C66.47200102 110.95474634 66.46832494 112.3407952 66.45996094 113.72680664 C66.44923947 115.85136362 66.45987416 117.97507836 66.47265625 120.09960938 C66.47133494 121.44661645 66.46877313 122.79362301 66.46484375 124.140625 C66.46258789 125.36789307 66.46033203 126.59516113 66.45800781 127.85961914 C66.19921875 130.79296875 66.19921875 130.79296875 64.19921875 132.79296875 C61.29954118 133.09972107 58.48138697 133.30470246 55.57421875 133.41796875 C54.77242187 133.45664063 53.970625 133.4953125 53.14453125 133.53515625 C51.16314319 133.62950806 49.1812123 133.7123309 47.19921875 133.79296875 C49.3011989 135.90381802 51.41146299 137.99404224 53.57421875 140.04296875 C61.51134458 148.35805295 64.55701428 155.08707934 64.57421875 166.60546875 C64.59871094 167.45689453 64.62320313 168.30832031 64.6484375 169.18554688 C64.69097116 178.49333049 61.29194611 185.23428352 55.12890625 192.05859375 C53.17149153 193.81788957 51.44840057 194.6999492 49.07421875 195.79296875 C44.759705 198.24062559 43.85224717 201.81498042 42.57421875 206.35546875 C42.18128545 207.78618237 41.78935916 209.21717293 41.3984375 210.6484375 C36.2215288 229.39271355 21.28321215 244.67715233 4.765625 254.1953125 C-13.73825703 263.935756 -35.93087357 266.11982734 -56.0390625 260.16796875 C-69.30251373 255.50267735 -79.7298779 248.54389357 -89.80078125 238.79296875 C-90.58195312 238.04144531 -91.363125 237.28992188 -92.16796875 236.515625 C-101.18543048 227.09465817 -108.27757848 213.93218535 -110.42578125 201.04296875 C-112.31400477 196.57989498 -115.27155637 195.18428834 -119.2578125 192.6015625 C-125.62737641 188.07144255 -129.44551776 181.43272019 -130.80078125 173.79296875 C-132.15421221 162.12589262 -130.54057064 153.59168326 -123.80078125 143.79296875 C-120.28679294 139.80305994 -117.12275045 136.79600064 -111.80078125 135.79296875 C-112.29578125 134.80296875 -112.29578125 134.80296875 -112.80078125 133.79296875 C-113.72358887 133.7789502 -113.72358887 133.7789502 -114.66503906 133.76464844 C-117.46109211 133.7108579 -120.25548745 133.62723056 -123.05078125 133.54296875 C-124.01886719 133.52878906 -124.98695313 133.51460937 -125.984375 133.5 C-126.91894531 133.46777344 -127.85351562 133.43554688 -128.81640625 133.40234375 C-129.67524414 133.38139648 -130.53408203 133.36044922 -131.41894531 133.33886719 C-134.65862231 132.59635819 -135.84023104 131.4564629 -137.80078125 128.79296875 C-138.28662109 126.015625 -138.28662109 126.015625 -138.26171875 122.85546875 C-138.25785156 121.71335937 -138.25398437 120.57125 -138.25 119.39453125 C-138.22550781 118.20601563 -138.20101562 117.0175 -138.17578125 115.79296875 C-138.17384766 114.01019531 -138.17384766 114.01019531 -138.171875 112.19140625 C-138.07156624 102.31656587 -138.07156624 102.31656587 -135.80078125 98.79296875 C-133.18024805 97.10230217 -131.97448403 96.79296875 -128.80078125 96.79296875 C-128.8471875 96.24511719 -128.89359375 95.69726562 -128.94140625 95.1328125 C-129.97137756 72.51022843 -116.38890783 50.83063717 -101.8671875 34.63671875 C-94.18204145 26.59592208 -84.83065437 20.5467107 -74.80078125 15.79296875 C-74.14078125 15.79296875 -73.48078125 15.79296875 -72.80078125 15.79296875 C-72.85878906 14.98472656 -72.91679687 14.17648438 -72.9765625 13.34375 C-73.04423828 11.74080078 -73.04423828 11.74080078 -73.11328125 10.10546875 C-73.17128906 9.04972656 -73.22929687 7.99398437 -73.2890625 6.90625 C-72.62387239 2.66499786 -71.18201693 1.37835507 -67.80078125 -1.20703125 C-64.3125 -2.53515625 -64.3125 -2.53515625 -60.48828125 -3.45703125 C-59.23402344 -3.7715625 -57.97976562 -4.08609375 -56.6875 -4.41015625 C-40.40996175 -7.74746057 -14.48173835 -9.70684848 0 0 Z M-59.80078125 8.79296875 C-61.37970732 11.9508209 -60.9391037 15.33998863 -60.93017578 18.80688477 C-60.9319281 19.63462402 -60.93368042 20.46236328 -60.93548584 21.31518555 C-60.93989756 24.05910318 -60.93696901 26.80295668 -60.93359375 29.546875 C-60.93426692 31.44734205 -60.93523705 33.34780901 -60.93649292 35.24827576 C-60.93796892 39.23380349 -60.93581823 43.21930884 -60.93115234 47.20483398 C-60.92545125 52.32543752 -60.92873709 57.44598869 -60.93472481 62.56659031 C-60.93832976 66.49123025 -60.93719221 70.41585767 -60.93459702 74.34049797 C-60.93392776 76.2292373 -60.93475611 78.11797775 -60.93707657 80.00671577 C-60.93960243 82.64065713 -60.93576364 85.27451236 -60.93017578 87.90844727 C-60.93220001 88.69652267 -60.93422424 89.48459808 -60.93630981 90.29655457 C-61.250232 93.83893149 -61.250232 93.83893149 -59.80078125 96.79296875 C-58.26595155 96.88616324 -56.72686043 96.91042675 -55.18920898 96.90649414 C-54.19449585 96.90637329 -53.19978271 96.90625244 -52.17492676 96.90612793 C-51.12204468 96.90101196 -50.0691626 96.895896 -48.984375 96.890625 C-48.02213013 96.88961792 -47.05988525 96.88861084 -46.06848145 96.88757324 C-42.45840267 96.88232335 -38.84834082 96.86836223 -35.23828125 96.85546875 C-27.17390625 96.83484375 -19.10953125 96.81421875 -10.80078125 96.79296875 C-10.80078125 67.75296875 -10.80078125 38.71296875 -10.80078125 8.79296875 C-24.38019809 3.36120201 -46.0661322 3.21726392 -59.80078125 8.79296875 Z M-93.55078125 42.98046875 C-99.48529572 48.97282108 -103.78451848 55.35839797 -107.80078125 62.79296875 C-108.20683594 63.48648438 -108.61289063 64.18 -109.03125 64.89453125 C-113.95704953 73.76474496 -117.36681042 85.60444367 -116.80078125 95.79296875 C-115.05177083 97.95881875 -115.05177083 97.95881875 -112.96578979 97.99551392 C-112.22410553 97.9733078 -111.48242126 97.95110168 -110.71826172 97.92822266 C-109.86578857 97.90767822 -109.01331543 97.88713379 -108.13500977 97.8659668 C-107.23838623 97.83414307 -106.3417627 97.80231934 -105.41796875 97.76953125 C-104.59433838 97.74785889 -103.77070801 97.72618652 -102.92211914 97.70385742 C-99.83968125 97.61973686 -96.75775129 97.51777023 -93.67578125 97.41796875 C-83.34265625 97.10859375 -83.34265625 97.10859375 -72.80078125 96.79296875 C-72.80078125 74.35296875 -72.80078125 51.91296875 -72.80078125 28.79296875 C-79.99732449 28.79296875 -88.57622815 38.09782089 -93.55078125 42.98046875 Z M2.19921875 28.79296875 C0.37365758 30.61852992 1.07149472 33.49835478 1.06982422 35.94921875 C1.06667206 37.26728516 1.0635199 38.58535156 1.06027222 39.94335938 C1.062062 41.3932295 1.06411295 42.84309933 1.06640625 44.29296875 C1.06573318 45.76888037 1.06476312 47.24479188 1.06350708 48.72070312 C1.06203027 51.81771904 1.06418411 54.91470617 1.06884766 58.01171875 C1.07454495 61.99005424 1.07126585 65.96832227 1.06527519 69.94665527 C1.06166912 72.99544792 1.06280838 76.04422446 1.06540298 79.09301758 C1.06607213 80.56030281 1.06524428 82.02758949 1.06292343 83.49487305 C1.06039618 85.54215468 1.06492815 87.58944141 1.06982422 89.63671875 C1.07061981 90.80396484 1.07141541 91.97121094 1.07223511 93.17382812 C0.90160163 95.71936323 0.90160163 95.71936323 2.19921875 96.79296875 C3.61039577 96.91506799 5.02742334 96.97067747 6.44360352 96.99829102 C7.79489098 97.02820885 7.79489098 97.02820885 9.17347717 97.05873108 C10.15263596 97.07544357 11.13179474 97.09215607 12.140625 97.109375 C13.63673561 97.14054665 13.63673561 97.14054665 15.16307068 97.17234802 C18.36254718 97.23795512 21.56210857 97.29678009 24.76171875 97.35546875 C26.92513914 97.39864337 29.08855081 97.4422573 31.25195312 97.48632812 C36.56761749 97.59364778 41.88336709 97.69539302 47.19921875 97.79296875 C46.86921875 97.13296875 46.53921875 96.47296875 46.19921875 95.79296875 C46.11890704 94.2938169 46.06034651 92.79348253 46.01171875 91.29296875 C44.5905612 74.39451723 36.37250048 57.28075422 25.19921875 44.79296875 C24.49796875 44.00921875 23.79671875 43.22546875 23.07421875 42.41796875 C17.81470565 36.85791205 12.04214724 32.28174049 5.19921875 28.79296875 C4.20921875 28.79296875 3.21921875 28.79296875 2.19921875 28.79296875 Z M-127.80078125 86.79296875 C-126.80078125 88.79296875 -126.80078125 88.79296875 -126.80078125 88.79296875 Z M-125.80078125 110.79296875 C-126.08121109 112.96834559 -126.08121109 112.96834559 -125.98828125 115.35546875 C-125.98183594 116.16113281 -125.97539062 116.96679688 -125.96875 117.796875 C-126.01709037 119.7917676 -126.01709037 119.7917676 -124.80078125 120.79296875 C-122.49721692 120.89008817 -120.19060467 120.91483445 -117.88499451 120.91322327 C-117.15318421 120.91407769 -116.42137391 120.91493212 -115.66738755 120.91581243 C-113.19677246 120.91746941 -110.72622415 120.91194234 -108.25561523 120.90649414 C-106.49194338 120.90621229 -104.7282714 120.90636996 -102.96459961 120.90693665 C-98.16108282 120.9072247 -93.35759078 120.90132667 -88.55407977 120.89436269 C-83.5398844 120.88813049 -78.52568852 120.88752546 -73.51148987 120.88633728 C-64.00941365 120.88322357 -54.50734887 120.87500964 -45.00527769 120.86498779 C-34.19046786 120.85382789 -23.3756575 120.84831651 -12.56084335 120.84329236 C9.69251708 120.83282706 31.9458672 120.81522685 54.19921875 120.79296875 C54.19921875 116.83296875 54.19921875 112.87296875 54.19921875 108.79296875 C31.02545202 108.74630369 7.85169301 108.71100692 -15.32211113 108.68934441 C-26.08145592 108.67902 -36.84077157 108.66493748 -47.60009766 108.64208984 C-56.97497804 108.62219155 -66.34983733 108.60926079 -75.72473824 108.60479176 C-80.69133435 108.60217833 -85.65787007 108.59601159 -90.62444687 108.58150864 C-95.29469016 108.5679809 -99.96484792 108.56373631 -104.63510895 108.56675339 C-106.35325967 108.56620106 -108.07141313 108.56219508 -109.78954697 108.5545578 C-112.12737263 108.54467163 -114.46487132 108.54697645 -116.80270386 108.55245972 C-118.11349348 108.55061613 -119.4242831 108.54877254 -120.77479362 108.54687309 C-123.91284102 108.47338721 -123.91284102 108.47338721 -125.80078125 110.79296875 Z M-99.80078125 133.79296875 C-99.90390625 135.07171875 -100.00703125 136.35046875 -100.11328125 137.66796875 C-100.52225238 141.56359203 -100.52225238 141.56359203 -102.92578125 143.54296875 C-104.34890625 144.16171875 -104.34890625 144.16171875 -105.80078125 144.79296875 C-111.90383533 147.73551268 -114.77591855 150.70574506 -117.80078125 156.79296875 C-120.00813016 163.41501547 -120.07408591 172.0813103 -117.11328125 178.48046875 C-115.17057439 181.63906556 -113.41961702 183.61474315 -109.80078125 184.79296875 C-106.04262267 184.08911476 -106.04262267 184.08911476 -102.80078125 182.79296875 C-101.29284325 185.54861507 -100.47225097 187.8946643 -100.01171875 190.99609375 C-97.04676109 209.07800707 -90.6667072 225.45742903 -75.67578125 236.98046875 C-58.14144346 248.96105363 -39.74233963 253.5312101 -18.55126953 250.46777344 C-14.46922466 249.64717161 -10.65255475 248.35422094 -6.80078125 246.79296875 C-5.91648437 246.44234375 -5.0321875 246.09171875 -4.12109375 245.73046875 C10.75056577 239.05907009 22.70453125 225.95652949 29.0234375 211.09375 C31.23838288 204.87571396 32.49943274 198.51985938 33.71484375 192.046875 C34.13179881 189.94528701 34.65562645 187.86541441 35.19921875 185.79296875 C36.18921875 185.13296875 37.17921875 184.47296875 38.19921875 183.79296875 C39.83890625 184.19515625 39.83890625 184.19515625 41.51171875 184.60546875 C45.08680983 185.19218763 45.08680983 185.19218763 46.953125 183.4140625 C52.92609896 176.5199552 52.78755509 169.46202528 52.3828125 160.72363281 C51.85991497 155.22486459 49.66581058 151.25956058 45.82421875 147.41796875 C42.07091872 145.0944973 38.39011256 143.18993335 34.19921875 141.79296875 C33.86921875 138.82296875 33.53921875 135.85296875 33.19921875 132.79296875 C16.15348361 132.76963183 -0.89224656 132.75198567 -17.937994 132.74115658 C-25.85222278 132.73599531 -33.76644165 132.72895582 -41.68066406 132.7175293 C-48.57687182 132.7075773 -55.4730724 132.70111409 -62.36928713 132.69888026 C-66.02241887 132.69757403 -69.67553007 132.6944937 -73.32865524 132.68723869 C-77.4018928 132.67921461 -81.47509441 132.67897795 -85.54833984 132.67944336 C-86.76609604 132.67584808 -87.98385223 132.67225281 -89.23851013 132.66854858 C-90.8960154 132.67061058 -90.8960154 132.67061058 -92.58700562 132.67271423 C-93.55120108 132.67179244 -94.51539654 132.67087065 -95.50881004 132.66992092 C-97.83076441 132.64186828 -97.83076441 132.64186828 -99.80078125 133.79296875 Z " fill="#182A34" transform="translate(292.80078125,28.20703125)"/>
<path d="M0 0 C2.43879171 2.7158147 3.44764108 4.93815811 4.10546875 8.5 C4.27965332 9.37664307 4.45383789 10.25328613 4.63330078 11.15649414 C4.81618652 12.09485107 4.99907227 13.03320801 5.1875 14 C9.42906753 33.89933861 17.78306736 56.2600954 31 72 C31.72347145 73.27186795 32.41233603 74.56414309 33.0625 75.875 C36.61741874 82.46595182 41.24140048 88.33057385 45.72998047 94.30273438 C46.81286521 95.74991136 47.87893712 97.20964385 48.94140625 98.671875 C49.71291016 99.73148438 49.71291016 99.73148438 50.5 100.8125 C50.9228125 101.39644531 51.345625 101.98039062 51.78125 102.58203125 C53.13240843 104.28286531 53.13240843 104.28286531 56 106 C61.27133043 100.23713072 66.03623499 94.15974954 70.63867188 87.85205078 C71.68005711 86.43527381 72.73622817 85.02935391 73.79882812 83.62841797 C79.02330781 76.6434054 83.42825519 69.39078313 87.625 61.75 C87.95216003 61.15672913 88.27932007 60.56345825 88.61639404 59.95220947 C97.24588261 44.26381298 104.40909977 27.5984238 107 9.75 C107.58738734 6.27859375 108.10714782 4.83116101 110.0625 1.75 C114.74576597 -1.04003079 119.25979608 0.35120134 124.4128418 1.57128906 C126.89567826 2.25182028 129.35423697 2.98552999 131.8125 3.75 C132.6883374 4.01949463 133.5641748 4.28898926 134.46655273 4.56665039 C157.95460234 11.9244311 178.27342714 25.66652617 190.02539062 47.94482422 C195.82068256 60.16545735 199.12705265 73.66514245 201 87 C201.10151367 87.70688965 201.20302734 88.4137793 201.30761719 89.14208984 C202.51200234 97.75325373 203.18444628 106.30320635 203.25 115 C203.26389771 116.15798096 203.26389771 116.15798096 203.27807617 117.33935547 C203.2468782 122.7531218 203.2468782 122.7531218 201 125 C198.16121937 125.70660953 195.37471456 126.29221543 192.5 126.8125 C191.58710205 126.98064209 190.6742041 127.14878418 189.73364258 127.32202148 C107.6793674 142.04216654 23.38638073 142.76661012 -74.375 127.875 C-75.7196936 127.65565796 -75.7196936 127.65565796 -77.09155273 127.43188477 C-82.09922789 126.54915765 -86.52481586 125.46784561 -91 123 C-91.921875 121.18359375 -91.921875 121.18359375 -92 119 C-92.06703125 118.10410156 -92.1340625 117.20820313 -92.203125 116.28515625 C-92.36239193 105.33555473 -90.84611412 94.77129763 -89 84 C-88.85546387 83.15646973 -88.71092773 82.31293945 -88.56201172 81.44384766 C-84.49780099 58.52133909 -75.49712938 35.18551338 -56 21 C-42.22869173 11.73053074 -17.29905098 -3.06205829 0 0 Z M-55.75 36.1875 C-74.09898521 55.9514567 -80.729321 87.67151173 -80 114 C-71.20785814 116.69743098 -62.33337466 118.20791639 -53.25 119.5 C-52.51046082 119.60672028 -51.77092163 119.71344055 -51.00897217 119.82339478 C-35.3842133 122.06787563 -19.7406176 123.78087374 -4 125 C-3.33323242 125.05220703 -2.66646484 125.10441406 -1.97949219 125.15820312 C62.10872777 130.12343107 127.89681419 127.7903119 191 115 C190.13084516 86.55765708 186.60851112 55.58129049 166 34 C154.56677304 23.72145324 137.93866308 16.47366626 123 13 C120.85703971 13.41167373 120.85703971 13.41167373 119 14 C118.79020508 14.80497925 118.79020508 14.80497925 118.57617188 15.6262207 C111.0511599 44.1141981 98.65763374 69.38811416 81 93 C79.96425539 94.40581671 78.92910295 95.81206989 77.89453125 97.21875 C64.035727 115.964273 64.035727 115.964273 59 121 C53.71359223 121.52427184 53.71359223 121.52427184 51.0859375 119.59375 C50.23902344 118.55734375 50.23902344 118.55734375 49.375 117.5 C48.69566406 116.67242187 48.01632813 115.84484375 47.31640625 114.9921875 C46.55199219 114.00476563 45.78757812 113.01734375 45 112 C44.56413574 111.4421582 44.12827148 110.88431641 43.67919922 110.30957031 C20.84447352 80.9608633 0.82610895 49.48942263 -8 13 C-24.22267526 13 -44.14400967 25.62204674 -55.75 36.1875 Z M-90 95 C-89 97 -89 97 -89 97 Z M-91 105 C-90 107 -90 107 -90 107 Z M191 105 C192 108 192 108 192 108 Z " fill="#192B35" transform="translate(204,300)"/>
<path d="M0 0 C1.17626953 -0.020625 2.35253906 -0.04125 3.56445312 -0.0625 C10.803636 -0.09523797 15.80185843 0.09548156 21.3046875 5.22265625 C21.88476562 5.91230469 22.46484375 6.60195312 23.0625 7.3125 C23.65804687 8.00472656 24.25359375 8.69695312 24.8671875 9.41015625 C26.1875 11.25 26.1875 11.25 26.1875 13.25 C31.7975 13.58 37.4075 13.91 43.1875 14.25 C43.8475 12.6 44.5075 10.95 45.1875 9.25 C49.43216591 4.13143228 54.4057936 0.75841867 61.05126953 -0.13500977 C64.27262934 -0.2867313 67.4630631 -0.29579082 70.6875 -0.25 C71.77675781 -0.26546875 72.86601562 -0.2809375 73.98828125 -0.296875 C81.71514976 -0.259502 87.66199174 0.70442243 93.24609375 6.3203125 C93.70113281 6.99835938 94.15617187 7.67640625 94.625 8.375 C95.09808594 9.05820313 95.57117188 9.74140625 96.05859375 10.4453125 C99.2900793 15.61121674 98.70137661 21.31508701 98.1875 27.25 C95.9019807 32.17265695 92.47055294 35.06049249 88.1875 38.25 C82.69978404 40.07923865 76.80517276 39.60602372 71.0625 39.6875 C69.76828125 39.73326172 68.4740625 39.77902344 67.140625 39.82617188 C58.80927832 39.92373856 53.39899944 39.00474515 47.1875 33.25 C45.08923866 30.94191253 43.57037786 29.01575571 42.1875 26.25 C37.41578156 25.72053535 32.93820898 25.45643987 28.1875 26.25 C25.97999059 28.32279919 24.97500588 30.12040612 23.7890625 32.890625 C21.31565144 36.53438178 18.29673928 38.03256235 14.1875 39.25 C9.36387646 39.86080722 4.60735241 39.89954448 -0.25 39.875 C-1.52166016 39.90722656 -2.79332031 39.93945312 -4.10351562 39.97265625 C-14.01266582 39.98293012 -19.24259521 37.59140955 -26.3125 30.875 C-29.46291378 25.36177588 -29.2391837 19.28596952 -27.8125 13.25 C-25.14378326 7.05857717 -21.81600783 4.23326262 -15.8125 1.25 C-10.70556452 -0.45231183 -5.3462462 0.02320671 0 0 Z M-15.8125 16.25 C-16.97275399 19.70421315 -16.97275399 19.70421315 -16.8125 23.25 C-14.70918159 26.08540219 -13.51389276 27.12869185 -10.00341797 27.73583984 C-8.42004639 27.72351318 -8.42004639 27.72351318 -6.8046875 27.7109375 C-5.65355469 27.70707031 -4.50242188 27.70320313 -3.31640625 27.69921875 C-2.11886719 27.67472656 -0.92132813 27.65023437 0.3125 27.625 C1.51777344 27.62371094 2.72304687 27.62242187 3.96484375 27.62109375 C10.15767937 28.01026829 10.15767937 28.01026829 15.1875 25.25 C15.54420917 23.17983112 15.54420917 23.17983112 15.5 20.875 C15.51675781 20.10414063 15.53351563 19.33328125 15.55078125 18.5390625 C15.08659695 15.61420232 14.23584465 14.38321015 12.1875 12.25 C9.65279148 11.63490743 9.65279148 11.63490743 6.78515625 11.71875 C5.73005859 11.71359375 4.67496094 11.7084375 3.58789062 11.703125 C2.48638672 11.71859375 1.38488281 11.7340625 0.25 11.75 C-0.84763672 11.73453125 -1.94527344 11.7190625 -3.07617188 11.703125 C-4.13255859 11.70828125 -5.18894531 11.7134375 -6.27734375 11.71875 C-7.72548462 11.72551758 -7.72548462 11.72551758 -9.20288086 11.73242188 C-12.5549656 12.39725672 -13.72388999 13.59074288 -15.8125 16.25 Z M54.1875 17.25 C53.0384288 19.1754644 53.0384288 19.1754644 53.1875 21.25 C54.95613589 24.94759178 54.95613589 24.94759178 58.1875 27.25 C62.32840113 27.49310174 66.4777637 27.43519981 70.625 27.4375 C72.36233398 27.45586914 72.36233398 27.45586914 74.13476562 27.47460938 C75.24400391 27.47654297 76.35324219 27.47847656 77.49609375 27.48046875 C79.02447876 27.48663208 79.02447876 27.48663208 80.58374023 27.49291992 C83.42318237 27.43594162 83.42318237 27.43594162 86.1875 25.25 C86.70264107 23.18822968 86.70264107 23.18822968 86.625 20.875 C86.64433594 20.10414063 86.66367187 19.33328125 86.68359375 18.5390625 C85.99982357 15.38402842 84.65870907 14.28596317 82.1875 12.25 C78.41307479 11.4401091 74.6017094 11.64695569 70.75 11.6875 C69.71294922 11.66365234 68.67589844 11.63980469 67.60742188 11.61523438 C61.42602012 11.62714459 58.00562248 11.87544543 54.1875 17.25 Z M16.1875 19.25 C17.1875 22.25 17.1875 22.25 17.1875 22.25 Z " fill="#192B35" transform="translate(224.8125,163.75)"/>
<path d="M0 0 C1.21429688 -0.01160156 2.42859375 -0.02320313 3.6796875 -0.03515625 C4.85015625 -0.03128906 6.020625 -0.02742188 7.2265625 -0.0234375 C8.28697754 -0.02005371 9.34739258 -0.01666992 10.43994141 -0.01318359 C13.78114116 0.42871523 15.66695947 1.40181826 18.375 3.375 C19.6328125 5.35546875 19.6328125 5.35546875 20.5 7.5625 C20.81710937 8.35914063 21.13421875 9.15578125 21.4609375 9.9765625 C21.76257813 10.76804687 22.06421875 11.55953125 22.375 12.375 C22.67664063 13.06335938 22.97828125 13.75171875 23.2890625 14.4609375 C25.15914633 18.88272449 27.13539898 23.68060273 25.375 28.375 C22.87465835 30.78082701 20.30608401 32.81699735 17.46484375 34.80859375 C14.96776146 37.33493724 14.96776146 37.33493724 15.30859375 41.33203125 C16.60402328 48.79324405 19.28214351 55.96735742 21.66796875 63.1328125 C22.20744141 64.80730469 22.20744141 64.80730469 22.7578125 66.515625 C23.09184082 67.52141602 23.42586914 68.52720703 23.77001953 69.56347656 C24.41549997 72.56321534 24.19975175 74.4471648 23.375 77.375 C22.715 77.375 22.055 77.375 21.375 77.375 C20.715 78.695 20.055 80.015 19.375 81.375 C18.715 81.375 18.055 81.375 17.375 81.375 C17.375 82.365 17.375 83.355 17.375 84.375 C15.72540847 85.72940147 14.05543115 87.05905673 12.375 88.375 C10.11647424 91.23207499 7.97922167 94.153863 5.8515625 97.109375 C3.375 99.375 3.375 99.375 -0.171875 99.91015625 C-3.93441531 99.32704763 -5.00257501 98.83186682 -7.5 96.0625 C-8.16257813 95.33804688 -8.82515625 94.61359375 -9.5078125 93.8671875 C-13.28319647 89.42310083 -16.99551117 84.93915042 -20.625 80.375 C-21.35203125 79.56417969 -22.0790625 78.75335938 -22.828125 77.91796875 C-24.97365198 74.88158166 -25.32069888 73.07004556 -25.625 69.375 C-24.89648438 66.12695312 -24.89648438 66.12695312 -23.71875 62.65625 C-23.51519897 62.03528442 -23.31164795 61.41431885 -23.10192871 60.77453613 C-22.23755328 58.13901088 -21.34227825 55.51426625 -20.44970703 52.88818359 C-19.79937602 50.96012655 -19.16505939 49.02728882 -18.53125 47.09375 C-18.14259766 45.94841797 -17.75394531 44.80308594 -17.35351562 43.62304688 C-16.56674578 40.11527677 -16.67866829 37.82617736 -17.625 34.375 C-19.37367483 33.29068906 -19.37367483 33.29068906 -21.625 32.375 C-23.2578125 31.17578125 -23.2578125 31.17578125 -24.9375 29.6875 C-25.46988281 29.22988281 -26.00226563 28.77226562 -26.55078125 28.30078125 C-28.5382222 24.73784165 -27.09535867 21.12249988 -26.08227539 17.35864258 C-25.44844081 15.25540758 -24.73729795 13.19406649 -24 11.125 C-23.77699219 10.41859375 -23.55398437 9.7121875 -23.32421875 8.984375 C-22.00120972 5.28834978 -21.07550082 3.68395001 -17.765625 1.4140625 C-12.08732537 -0.48220454 -5.90894493 -0.05681678 0 0 Z M-12.171875 15.0859375 C-14.1277878 19.09498983 -14.1277878 19.09498983 -14.625 23.375 C-12.38862682 25.86855609 -10.08964294 27.9067638 -7.49609375 30.00585938 C-5.96875 31.36328125 -5.96875 31.36328125 -3.625 34.375 C-3.37689202 42.92518259 -7.35088166 51.67095298 -9.91796875 59.72851562 C-10.27761719 60.89447266 -10.63726562 62.06042969 -11.0078125 63.26171875 C-11.34184082 64.31576904 -11.67586914 65.36981934 -12.02001953 66.45581055 C-12.66180001 69.55256969 -12.56022047 71.37642316 -11.625 74.375 C-9.94780778 76.85822288 -9.94780778 76.85822288 -7.8125 79.125 C-7.12542969 79.90359375 -6.43835938 80.6821875 -5.73046875 81.484375 C-3.60140238 83.3961897 -2.41767916 83.99845899 0.375 84.375 C1.85685125 82.75244772 3.33540256 81.12688112 4.8125 79.5 C5.63621094 78.59507812 6.45992188 77.69015625 7.30859375 76.7578125 C10.47751881 73.10366451 10.70736938 71.18618299 10.375 66.375 C9.6023346 63.25593694 8.58827179 60.23130724 7.5625 57.1875 C7.01614597 55.49243907 6.47056865 53.79712759 5.92578125 52.1015625 C5.03200309 49.35658102 4.11491272 46.6258813 3.16796875 43.8984375 C1.0141151 37.24440453 1.0141151 37.24440453 2.75 33.0625 C4.84397179 30.91867174 6.83234936 29.24769627 9.1875 27.4375 C11.0263784 26.02378174 11.0263784 26.02378174 12.375 24.375 C12.45419778 19.8607266 11.05726555 16.49267927 9.375 12.375 C6.29238544 12.2003603 3.21104167 12.09405933 0.125 12 C-0.74769531 11.94972656 -1.62039063 11.89945312 -2.51953125 11.84765625 C-8.01433215 11.667831 -8.01433215 11.667831 -12.171875 15.0859375 Z " fill="#192B35" transform="translate(260.625,297.625)"/>
<path d="M0 0 C3.12498063 -0.02895976 6.2499269 -0.04678483 9.375 -0.0625 C10.70917969 -0.07506836 10.70917969 -0.07506836 12.0703125 -0.08789062 C13.34648438 -0.09272461 13.34648438 -0.09272461 14.6484375 -0.09765625 C15.43395996 -0.10289307 16.21948242 -0.10812988 17.02880859 -0.11352539 C19 0 19 0 21 1 C21 1.99 21 2.98 21 4 C19.02 4.99 17.04 5.98 15 7 C14.67 12.61 14.34 18.22 14 24 C21.92 24 29.84 24 38 24 C38 17.73 38 11.46 38 5 C36.02 4.67 34.04 4.34 32 4 C32.33 2.68 32.66 1.36 33 0 C36.12498063 -0.02895976 39.2499269 -0.04678483 42.375 -0.0625 C43.26445313 -0.07087891 44.15390625 -0.07925781 45.0703125 -0.08789062 C45.92109375 -0.09111328 46.771875 -0.09433594 47.6484375 -0.09765625 C48.43395996 -0.10289307 49.21948242 -0.10812988 50.02880859 -0.11352539 C52 0 52 0 54 1 C54 1.99 54 2.98 54 4 C52.02 4.99 50.04 5.98 48 7 C47.67 20.86 47.34 34.72 47 49 C49.31 49.33 51.62 49.66 54 50 C54 51.32 54 52.64 54 54 C46.74 54 39.48 54 32 54 C31.67 53.01 31.34 52.02 31 51 C31.66 50.34 32.32 49.68 33 49 C34.65 49 36.3 49 38 49 C38 42.73 38 36.46 38 30 C30.41 29.67 22.82 29.34 15 29 C14.67 35.6 14.34 42.2 14 49 C17.465 49.495 17.465 49.495 21 50 C21 51.32 21 52.64 21 54 C13.74 54 6.48 54 -1 54 C-1.495 52.515 -1.495 52.515 -2 51 C-1.34 50.34 -0.68 49.68 0 49 C1.65 49 3.3 49 5 49 C5 34.48 5 19.96 5 5 C2.03 4.505 2.03 4.505 -1 4 C-0.67 2.68 -0.34 1.36 0 0 Z " fill="#192B35" transform="translate(1134,207)"/>
<path d="M0 0 C4.54154478 -0.08735463 9.08287232 -0.14051247 13.625 -0.1875 C15.55279297 -0.22520508 15.55279297 -0.22520508 17.51953125 -0.26367188 C19.38544922 -0.27817383 19.38544922 -0.27817383 21.2890625 -0.29296875 C23.00150146 -0.31653442 23.00150146 -0.31653442 24.74853516 -0.34057617 C29.82375781 0.19103035 33.90718556 2.3286363 37.375 6.0625 C40.35610715 9.77511893 40.8233619 12.93723171 40.5234375 17.62890625 C39.64093951 21.62649044 38.06131113 23.27883455 35 26 C32.1875 27.375 32.1875 27.375 30 28 C30.7425 28.763125 31.485 29.52625 32.25 30.3125 C36.60784693 35.51460217 39 42.26518935 39 49 C41.97 49.495 41.97 49.495 45 50 C45.495 51.98 45.495 51.98 46 54 C42.79139471 55.60430264 39.4809543 55.48105318 36 55 C31.8718238 52.57694006 30.54811449 50.41149697 29 46 C28.20146271 42.92563143 27.49151254 39.83800573 26.78125 36.7421875 C26.09895142 33.81747686 26.09895142 33.81747686 24 31 C21.30981684 30.22980441 18.81868476 30.17896411 16 30 C14.48578999 31.51421001 14.78690144 32.92472768 14.68359375 35.03515625 C14.64169922 35.84404297 14.59980469 36.65292969 14.55664062 37.48632812 C14.51732422 38.33646484 14.47800781 39.18660156 14.4375 40.0625 C14.39431641 40.91650391 14.35113281 41.77050781 14.30664062 42.65039062 C14.20023298 44.76672037 14.09958269 46.88333813 14 49 C17.465 49.495 17.465 49.495 21 50 C21 51.32 21 52.64 21 54 C13.74 54 6.48 54 -1 54 C-1.495 52.515 -1.495 52.515 -2 51 C-1.34 50.34 -0.68 49.68 0 49 C1.65 49 3.3 49 5 49 C5 34.48 5 19.96 5 5 C2.03 4.505 2.03 4.505 -1 4 C-0.67 2.68 -0.34 1.36 0 0 Z M14 6 C13.72313935 8.03467434 13.72313935 8.03467434 13.8046875 10.3515625 C13.81113281 11.20234375 13.81757812 12.053125 13.82421875 12.9296875 C13.84097656 13.81914062 13.85773437 14.70859375 13.875 15.625 C13.88402344 16.5221875 13.89304687 17.419375 13.90234375 18.34375 C13.9259503 20.56276586 13.9588769 22.78125077 14 25 C21.70523826 25.77175985 21.70523826 25.77175985 28.6875 23.0625 C31.41088001 19.4558616 31.72004805 17.55839955 31.3828125 13.15234375 C30.83294345 10.06073308 30.1663481 8.30611249 28 6 C20.59088028 3.11212946 20.59088028 3.11212946 14 6 Z " fill="#182A34" transform="translate(775,207)"/>
<path d="M0 0 C6.42857376 3.71631546 11.48350582 9.38652184 13.875 16.4375 C15.96923542 25.22240962 15.75695611 34.30650885 11.875 42.5625 C7.90348442 48.4595989 3.68481174 51.79890236 -3 54.25 C-11.34840694 55.4777069 -18.22951575 54.08310746 -25.3125 49.5 C-30.66600876 44.59510929 -34.57922475 37.58184291 -35.36328125 30.37109375 C-35.63532619 21.67997374 -33.45897499 14.05316121 -28 7.1875 C-20.47776417 -0.60739683 -10.34360966 -4.36371032 0 0 Z M-18.125 6.5625 C-23.70380352 13.38616051 -25.60584769 20.86323982 -25.44921875 29.57421875 C-24.77048055 35.83005883 -23.23150344 43.43550489 -18.125 47.5625 C-13.15190214 49.93064184 -8.34423416 50.28979574 -3.125 48.5625 C0.83035964 45.73244438 3.00400026 42.0949611 4.25 37.4375 C5.88730568 27.40900268 5.78572544 17.67339576 0.875 8.5625 C-2.16263577 5.52486423 -4.57268984 3.70361911 -8.875 3.3125 C-12.82468903 3.61632223 -14.83944521 4.32552652 -18.125 6.5625 Z M-34.125 22.5625 C-33.125 24.5625 -33.125 24.5625 -33.125 24.5625 Z M-34.125 30.5625 C-33.125 32.5625 -33.125 32.5625 -33.125 32.5625 Z " fill="#192B35" transform="translate(551.125,207.4375)"/>
<path d="M0 0 C2.03798482 -0.19049413 4.08119923 -0.3254796 6.125 -0.4375 C7.26195312 -0.51871094 8.39890625 -0.59992188 9.5703125 -0.68359375 C14.53157433 0.30526823 16.17052438 2.99842352 19 7 C19.4522998 7.62124756 19.90459961 8.24249512 20.37060547 8.88256836 C21.73669666 10.79783319 23.06025482 12.73668044 24.375 14.6875 C24.84470215 15.37650391 25.3144043 16.06550781 25.79833984 16.77539062 C29.43659591 22.1245301 33.00736321 27.51742272 36.5390625 32.9375 C37.02117188 33.618125 37.50328125 34.29875 38 35 C38.33 35 38.66 35 39 35 C39.33 25.1 39.66 15.2 40 5 C37.69 4.67 35.38 4.34 33 4 C33.33 2.68 33.66 1.36 34 0 C36.62506802 -0.02690844 39.24986173 -0.04679404 41.875 -0.0625 C42.62136719 -0.07087891 43.36773438 -0.07925781 44.13671875 -0.08789062 C49.7734375 -0.11328125 49.7734375 -0.11328125 52 1 C52 1.99 52 2.98 52 4 C50.02 4.99 48.04 5.98 46 7 C45.67 22.51 45.34 38.02 45 54 C44.01 54 43.02 54 42 54 C42 53.34 42 52.68 42 52 C41.34 52 40.68 52 40 52 C38.64648438 50.38623047 38.64648438 50.38623047 37.09375 48.1171875 C36.51923096 47.28574219 35.94471191 46.45429688 35.3527832 45.59765625 C34.43565552 44.24994141 34.43565552 44.24994141 33.5 42.875 C32.23361684 41.03868727 30.96668635 39.20275189 29.69921875 37.3671875 C29.07321777 36.45678711 28.4472168 35.54638672 27.80224609 34.60839844 C25.34121916 31.04654369 22.83495224 27.51851232 20.3125 24 C19.54550781 22.9275 18.77851562 21.855 17.98828125 20.75 C16.76671775 19.06045048 15.51931675 17.38880011 14.23046875 15.75 C13 14 13 14 13 12 C12.34 12 11.68 12 11 12 C11 23.88 11 35.76 11 48 C13.31 48.33 15.62 48.66 18 49 C20 51 20 51 20 54 C13.4 54 6.8 54 0 54 C0 52.68 0 51.36 0 50 C2.97 49.505 2.97 49.505 6 49 C5.67 34.48 5.34 19.96 5 5 C3.68 4.67 2.36 4.34 1 4 C0.67 2.68 0.34 1.36 0 0 Z M40 35 C41 38 41 38 41 38 Z " fill="#192B35" transform="translate(585,207)"/>
<path d="M0 0 C5.37515933 -0.02467759 10.75028585 -0.04284928 16.12548828 -0.05493164 C17.95492121 -0.05996737 19.78435009 -0.06679627 21.61376953 -0.07543945 C24.23991898 -0.08753824 26.86601532 -0.09323583 29.4921875 -0.09765625 C30.31306854 -0.10281754 31.13394958 -0.10797882 31.97970581 -0.11329651 C37.77225659 -0.11387171 37.77225659 -0.11387171 40 1 C40 5.62 40 10.24 40 15 C38.68 15 37.36 15 36 15 C33 8.375 33 8.375 33 5 C24.585 5.495 24.585 5.495 16 6 C16.33 11.94 16.66 17.88 17 24 C19.97 23.67 22.94 23.34 26 23 C26.66 21.02 27.32 19.04 28 17 C28.99 17 29.98 17 31 17 C32 18 32 18 32.11352539 19.76586914 C32.10828857 20.51473389 32.10305176 21.26359863 32.09765625 22.03515625 C32.09443359 22.84404297 32.09121094 23.65292969 32.08789062 24.48632812 C32.07532227 25.7615332 32.07532227 25.7615332 32.0625 27.0625 C32.05798828 27.91650391 32.05347656 28.77050781 32.04882812 29.65039062 C32.03700373 31.76695663 32.01906769 33.88348685 32 36 C30.68 36 29.36 36 28 36 C26 33 26 33 26 30 C22.7 29.67 19.4 29.34 16 29 C16.33 35.6 16.66 42.2 17 49 C22.94 49 28.88 49 35 49 C35.33 46.36 35.66 43.72 36 41 C37.9375 39.4375 37.9375 39.4375 40 39 C40.99 39.495 40.99 39.495 42 40 C42.02705729 41.77074917 42.04642195 43.54161711 42.0625 45.3125 C42.07410156 46.29863281 42.08570313 47.28476563 42.09765625 48.30078125 C42 51 42 51 41 54 C27.8 54 14.6 54 1 54 C0.67 52.68 0.34 51.36 0 50 C3.465 49.505 3.465 49.505 7 49 C6.67 34.81 6.34 20.62 6 6 C3.525 5.01 3.525 5.01 1 4 C0.1875 1.875 0.1875 1.875 0 0 Z " fill="#192B35" transform="translate(1006,207)"/>
<path d="M0 0 C3.12498063 -0.02895976 6.2499269 -0.04678483 9.375 -0.0625 C10.70917969 -0.07506836 10.70917969 -0.07506836 12.0703125 -0.08789062 C13.34648438 -0.09272461 13.34648438 -0.09272461 14.6484375 -0.09765625 C15.43395996 -0.10289307 16.21948242 -0.10812988 17.02880859 -0.11352539 C19 0 19 0 21 1 C21 1.99 21 2.98 21 4 C17.535 5.485 17.535 5.485 14 7 C13.92506964 10.96516109 13.87103551 14.93004014 13.83520508 18.89575195 C13.81294542 20.89744576 13.77479854 22.89894275 13.73632812 24.90039062 C13.68063481 32.2704724 13.99508564 38.22265099 17 45 C20.83786209 47.82195742 26.36980033 47.56324432 31 47 C33.75452246 46.100156 34.72997507 45.51348904 36.08959961 42.92797852 C37.23998798 39.22816415 37.35412036 35.69435287 37.4140625 31.85546875 C37.43342865 31.08568192 37.4527948 30.31589508 37.4727478 29.52278137 C37.53225623 27.07779829 37.57881295 24.63276738 37.625 22.1875 C37.66320631 20.52406866 37.70225957 18.86065653 37.7421875 17.19726562 C37.83793383 13.13166759 37.92207009 9.06597699 38 5 C36.02 4.67 34.04 4.34 32 4 C31.505 2.515 31.505 2.515 31 1 C32.87634259 -0.87634259 35.540825 -0.13246191 38.03320312 -0.13671875 C39.22333008 -0.13091797 39.22333008 -0.13091797 40.4375 -0.125 C41.22705078 -0.12886719 42.01660156 -0.13273438 42.83007812 -0.13671875 C48.74673867 -0.12663067 48.74673867 -0.12663067 51 1 C51 1.99 51 2.98 51 4 C48.69 4.66 46.38 5.32 44 6 C44.01571045 7.3912207 44.01571045 7.3912207 44.03173828 8.81054688 C44.06602673 12.284531 44.09099877 15.75833265 44.10986328 19.23242188 C44.11985901 20.72984676 44.13346014 22.22725244 44.15087891 23.72460938 C44.17541288 25.88937143 44.18654744 28.05387323 44.1953125 30.21875 C44.21102295 32.1668457 44.21102295 32.1668457 44.22705078 34.15429688 C43.82199495 41.01498451 42.47837953 46.5098157 37.69921875 51.58984375 C33.01809317 55.47463992 26.796594 55.51652818 21 55 C15.48660443 54.12946386 12.4956681 52.08347723 8.578125 48.33984375 C2.86051897 39.86250213 3.64061555 30.23058978 3.8125 20.4375 C3.82757608 18.93686241 3.84125931 17.43621015 3.85351562 15.93554688 C3.88628518 12.29005548 3.93790521 8.64512365 4 5 C2.35 4.67 0.7 4.34 -1 4 C-0.67 2.68 -0.34 1.36 0 0 Z M5 6 C5 16.23 5 26.46 5 37 C5.33 37 5.66 37 6 37 C6 26.77 6 16.54 6 6 C5.67 6 5.34 6 5 6 Z M39 6 C39 15.24 39 24.48 39 34 C39.33 34 39.66 34 40 34 C40 24.76 40 15.52 40 6 C39.67 6 39.34 6 39 6 Z " fill="#192B35" transform="translate(838,207)"/>
<path d="M0 0 C0.88022827 0.00718552 1.76045654 0.01437103 2.6673584 0.02177429 C3.569823 0.02223251 4.4722876 0.02269073 5.40209961 0.02316284 C7.31198439 0.02618664 9.22186666 0.03407674 11.13171387 0.0464325 C14.06165262 0.06466863 16.99127512 0.06694234 19.92126465 0.06669617 C21.77413198 0.07161208 23.62699715 0.07744071 25.4798584 0.08427429 C26.36008667 0.08538712 27.24031494 0.08649994 28.1472168 0.08764648 C34.3414832 0.13618044 34.3414832 0.13618044 36.5736084 1.25224304 C36.5736084 5.87224304 36.5736084 10.49224304 36.5736084 15.25224304 C34.0986084 14.75724304 34.0986084 14.75724304 31.5736084 14.25224304 C29.71352915 10.97496055 29.5736084 9.08626764 29.5736084 5.25224304 C28.09392516 5.39273822 26.61486323 5.5397913 25.1361084 5.68974304 C23.90054199 5.81155945 23.90054199 5.81155945 22.64001465 5.93583679 C20.58698814 6.04155119 20.58698814 6.04155119 19.5736084 7.25224304 C19.41319647 10.35309526 19.31397438 13.43411883 19.25720215 16.53739929 C19.23642105 17.46821823 19.21563995 18.39903717 19.19422913 19.35806274 C19.12862909 22.34354487 19.06980038 25.32911788 19.0111084 28.31474304 C18.9679331 30.33363281 18.92431915 32.35251324 18.88024902 34.37138367 C18.77293711 39.33157601 18.67169952 44.29186013 18.5736084 49.25224304 C19.5223584 49.21099304 20.4711084 49.16974304 21.4486084 49.12724304 C24.5736084 49.25224304 24.5736084 49.25224304 26.5736084 51.25224304 C26.5736084 52.24224304 26.5736084 53.23224304 26.5736084 54.25224304 C18.6536084 54.25224304 10.7336084 54.25224304 2.5736084 54.25224304 C2.0786084 52.76724304 2.0786084 52.76724304 1.5736084 51.25224304 C2.2336084 50.59224304 2.8936084 49.93224304 3.5736084 49.25224304 C5.5536084 49.25224304 7.5336084 49.25224304 9.5736084 49.25224304 C9.5736084 34.73224304 9.5736084 20.21224304 9.5736084 5.25224304 C5.1186084 5.74724304 5.1186084 5.74724304 0.5736084 6.25224304 C-0.4163916 9.22224304 -1.4063916 12.19224304 -2.4263916 15.25224304 C-4.0763916 15.25224304 -5.7263916 15.25224304 -7.4263916 15.25224304 C-8.72728991 12.65044642 -8.59479238 10.65532424 -8.6138916 7.75224304 C-8.62807129 6.77255554 -8.64225098 5.79286804 -8.65686035 4.78349304 C-8.16079949 -0.6647686 -4.61670272 0.01744425 0 0 Z " fill="#192B35" transform="translate(717.4263916015625,206.7477569580078)"/>
<path d="M0 0 C0.88022827 0.00404846 1.76045654 0.00809692 2.6673584 0.01226807 C4.0210553 0.00939789 4.0210553 0.00939789 5.40209961 0.00646973 C7.31197386 0.00510748 9.22185736 0.00880669 11.13171387 0.01715088 C14.0617749 0.02784986 16.99122278 0.01725696 19.92126465 0.00445557 C21.77413059 0.00577715 23.62699615 0.00833953 25.4798584 0.01226807 C26.80020081 0.00619537 26.80020081 0.00619537 28.1472168 0 C34.3436918 0.04797647 34.3436918 0.04797647 36.5736084 2.27789307 C36.7689209 5.31695557 36.7689209 5.31695557 36.6986084 8.90289307 C36.68056152 10.09140869 36.66251465 11.27992432 36.6439209 12.50445557 C36.62071777 13.41968994 36.59751465 14.33492432 36.5736084 15.27789307 C34.9236084 15.27789307 33.2736084 15.27789307 31.5736084 15.27789307 C30.25734148 11.65815905 29.5736084 9.18222176 29.5736084 5.27789307 C25.9436084 5.60789307 22.3136084 5.93789307 18.5736084 6.27789307 C18.47433463 20.65052819 18.45552863 34.94251316 19.5736084 49.27789307 C20.3573584 49.23664307 21.1411084 49.19539307 21.9486084 49.15289307 C24.5736084 49.27789307 24.5736084 49.27789307 26.5736084 51.27789307 C26.5736084 52.26789307 26.5736084 53.25789307 26.5736084 54.27789307 C18.6536084 54.27789307 10.7336084 54.27789307 2.5736084 54.27789307 C2.2436084 52.95789307 1.9136084 51.63789307 1.5736084 50.27789307 C3.5736084 49.27789307 3.5736084 49.27789307 9.5736084 49.27789307 C9.2436084 35.08789307 8.9136084 20.89789307 8.5736084 6.27789307 C5.2736084 5.94789307 1.9736084 5.61789307 -1.4263916 5.27789307 C-1.7563916 8.57789307 -2.0863916 11.87789307 -2.4263916 15.27789307 C-4.0763916 15.27789307 -5.7263916 15.27789307 -7.4263916 15.27789307 C-8.40715801 12.33559385 -8.59127289 10.28701467 -8.6138916 7.21539307 C-8.62807129 6.3375415 -8.64225098 5.45968994 -8.65686035 4.55523682 C-8.12599528 -0.6904299 -4.37449902 0.03386974 0 0 Z " fill="#192B35" transform="translate(950.4263916015625,206.72210693359375)"/>
<path d="M0 0 C0.94875 0.515625 1.8975 1.03125 2.875 1.5625 C3.535 1.8925 4.195 2.2225 4.875 2.5625 C4.875 6.5225 4.875 10.4825 4.875 14.5625 C3.225 14.5625 1.575 14.5625 -0.125 14.5625 C-2.42133824 11.11799263 -2.66516485 8.62437717 -3.125 4.5625 C-9.89985129 4.06271589 -15.63906391 4.17375113 -21.125 8.5625 C-27.60769364 16.43203855 -27.96318598 24.62400911 -27.125 34.5625 C-26.29590376 37.20185005 -25.31390165 39.46355667 -24 41.890625 C-23.125 43.5625 -23.125 43.5625 -23.125 45.5625 C-15.88932797 48.19936096 -9.82117973 48.85850691 -2.125 48.5625 C-1.465 45.2625 -0.805 41.9625 -0.125 38.5625 C2.845 39.0575 2.845 39.0575 5.875 39.5625 C5.92891993 41.35383978 5.96775571 43.14563899 6 44.9375 C6.02320313 45.93523437 6.04640625 46.93296875 6.0703125 47.9609375 C5.875 50.5625 5.875 50.5625 3.875 52.5625 C-5.37867103 55.73183342 -15.19373966 55.62478293 -24.125 51.5625 C-30.24805704 47.51614412 -35.49930367 41.71916734 -37.73828125 34.6171875 C-39.29225304 26.36073133 -38.07262145 18.64967221 -33.87109375 11.3984375 C-26.50766541 0.6843483 -12.56327315 -5.38425992 0 0 Z " fill="#192B35" transform="translate(1106.125,207.4375)"/>
<path d="M0 0 C2.5 1.625 2.5 1.625 4.5 3.625 C4.6953125 6.0078125 4.6953125 6.0078125 4.625 8.75 C4.60695313 9.66007813 4.58890625 10.57015625 4.5703125 11.5078125 C4.54710937 12.20648438 4.52390625 12.90515625 4.5 13.625 C2.52 13.625 0.54 13.625 -1.5 13.625 C-2.16 10.655 -2.82 7.685 -3.5 4.625 C-10.31636011 4.22536678 -10.31636011 4.22536678 -16.5 6.625 C-18.15621048 8.67554631 -18.53032228 10.03876919 -18.39453125 12.6640625 C-18.15139014 14.65852438 -17.83031499 16.64311005 -17.5 18.625 C-16.68208984 18.86283203 -16.68208984 18.86283203 -15.84765625 19.10546875 C-7.91551834 21.55968578 0.19706538 24.73931058 5.45703125 31.47265625 C7.67518992 36.05020467 7.48245405 40.72600614 6.5 45.625 C4.70185575 49.3906789 2.41003185 51.75644642 -1.3984375 53.48828125 C-9.48543726 55.83766656 -17.84746135 55.08144404 -25.5 51.625 C-27.70914 48.31129 -27.72481553 47.2803979 -27.625 43.4375 C-27.60695313 42.53644531 -27.58890625 41.63539063 -27.5703125 40.70703125 C-27.54710937 40.01996094 -27.52390625 39.33289063 -27.5 38.625 C-25.52 38.955 -23.54 39.285 -21.5 39.625 C-21.17 42.265 -20.84 44.905 -20.5 47.625 C-14.52571291 49.07331202 -9.10113072 49.42556536 -3.5 46.625 C-1.92077594 45.04577594 -2.292341 43.43056126 -2.25 41.25 C-2.22421875 40.45851562 -2.1984375 39.66703125 -2.171875 38.8515625 C-2.58700301 36.03462242 -3.23733632 35.32077602 -5.5 33.625 C-7.20257691 32.79709103 -8.93608319 32.03134667 -10.6875 31.3125 C-17.091223 28.47959473 -22.48559469 25.4940015 -26.5625 19.6875 C-28.12781681 14.57413175 -27.2830504 11.1040952 -24.8125 6.4375 C-18.41704786 -1.3407526 -9.33237564 -3.66629043 0 0 Z M-0.5 40.625 C0.5 42.625 0.5 42.625 0.5 42.625 Z " fill="#192B35" transform="translate(684.5,207.375)"/>
<path d="M0 0 C0.94875 0.515625 1.8975 1.03125 2.875 1.5625 C3.535 1.8925 4.195 2.2225 4.875 2.5625 C4.875 6.5225 4.875 10.4825 4.875 14.5625 C3.225 14.5625 1.575 14.5625 -0.125 14.5625 C-1.115 11.2625 -2.105 7.9625 -3.125 4.5625 C-10.10877541 4.17451248 -15.385572 4.257929 -21.125 8.5625 C-27.53941237 16.32731497 -27.99435797 24.85829164 -27.125 34.5625 C-25.86093459 39.65467257 -24.16657628 42.69451977 -20.125 46.0625 C-14.70147219 48.77426391 -10.08230877 48.98021593 -4.015625 48.33984375 C-1.92189889 47.71960877 -1.92189889 47.71960877 -1.078125 45.49609375 C-0.84609375 44.67238281 -0.6140625 43.84867188 -0.375 43 C-0.13265625 42.17371094 0.1096875 41.34742188 0.359375 40.49609375 C0.52953125 39.85800781 0.6996875 39.21992188 0.875 38.5625 C2.525 38.8925 4.175 39.2225 5.875 39.5625 C5.875 43.5225 5.875 47.4825 5.875 51.5625 C-4.88941834 54.49825046 -13.57963962 56.29030863 -24.125 51.5625 C-30.75567032 47.18834052 -35.61029291 41.10662128 -38.125 33.5625 C-38.98528038 23.47074934 -37.24979799 15.32188705 -30.8671875 7.3515625 C-23.00411341 -0.72307412 -10.69521001 -4.58366143 0 0 Z " fill="#182A34" transform="translate(490.125,207.4375)"/>
<path d="M0 0 C1.46751239 0.00399142 2.93502584 0.01874717 4.40234375 0.04296875 C5.14806641 0.04361328 5.89378906 0.04425781 6.66210938 0.04492188 C12.19956216 0.09018716 12.19956216 0.09018716 13.33984375 1.23046875 C13.33984375 2.88046875 13.33984375 4.53046875 13.33984375 6.23046875 C7.39984375 6.23046875 1.45984375 6.23046875 -4.66015625 6.23046875 C-4.99015625 4.91046875 -5.32015625 3.59046875 -5.66015625 2.23046875 C-3.66015625 0.23046875 -3.66015625 0.23046875 0 0 Z " fill="#192B35" transform="translate(912.66015625,237.76953125)"/>
<path d="M0 0 C0.33 0 0.66 0 1 0 C1 2.64 1 5.28 1 8 C0.67 8 0.34 8 0 8 C0 5.36 0 2.72 0 0 Z " fill="#192B35" transform="translate(656,248)"/>
<path d="M0 0 C1.65 0 3.3 0 5 0 C5 0.33 5 0.66 5 1 C3.35 1 1.7 1 0 1 C0 0.67 0 0.34 0 0 Z " fill="#000102" transform="translate(266,439)"/>
<path d="M0 0 C4 1 4 1 4 1 Z " fill="#000102" transform="translate(250,439)"/>
<path d="M0 0 C2 1 2 1 2 1 Z " fill="#192B35" transform="translate(659,245)"/>
<path d="M0 0 C2 1 2 1 2 1 Z " fill="#192B35" transform="translate(492,245)"/>
<path d="" fill="#192B35" transform="translate(0,0)"/>
<path d="" fill="#192B35" transform="translate(0,0)"/>
<path d="" fill="#192B35" transform="translate(0,0)"/>
<path d="" fill="#192B35" transform="translate(0,0)"/>
<path d="" fill="#192B35" transform="translate(0,0)"/>
<path d="" fill="#192B35" transform="translate(0,0)"/>
<path d="" fill="#192B35" transform="translate(0,0)"/>
</svg>
